<svg xmlns="http://www.w3.org/2000/svg" viewBox="0 0 80.31 13.85"><defs><style>.cls-1{fill:#ed1c24;}.cls-2{fill:#fff;}</style></defs><g id="Layer_2" data-name="Layer 2"><g id="Layer_1-2" data-name="Layer 1"><path class="cls-1" d="M73.39,0a6.94,6.94,0,0,0-5.54,2.77,6.92,6.92,0,0,0-11.08,0A6.65,6.65,0,0,0,54.88,1a6.45,6.45,0,0,0-1.6-.73A6.91,6.91,0,0,0,45.7,2.77a6.93,6.93,0,0,0-11.08,0,6.93,6.93,0,0,0-11.08,0,6.93,6.93,0,0,0-11.08,0,6.92,6.92,0,1,0,0,8.31,6.93,6.93,0,0,0,11.08,0,6.93,6.93,0,0,0,11.08,0,6.93,6.93,0,0,0,11.08,0,6.92,6.92,0,0,0,11.07,0,6.92,6.92,0,0,0,11.08,0A6.92,6.92,0,1,0,73.39,0Z"/><path class="cls-2" d="M53.13,3.82a3.64,3.64,0,1,0,1.74,3.1V1a6.45,6.45,0,0,0-1.6-.73v3.6ZM51.23,9a2.06,2.06,0,1,1,2.06-2.06A2,2,0,0,1,51.23,9Z"/><path class="cls-2" d="M62.31,10.57A3.65,3.65,0,1,1,66,6.92,3.66,3.66,0,0,1,62.31,10.57Zm0-5.7a2.06,2.06,0,1,0,2,2.05A2.05,2.05,0,0,0,62.31,4.87Z"/><path class="cls-2" d="M73.39,10.57A3.65,3.65,0,1,1,77,6.92,3.65,3.65,0,0,1,73.39,10.57Zm0-5.7a2.06,2.06,0,1,0,2,2.05A2.05,2.05,0,0,0,73.39,4.87Z"/><path class="cls-2" d="M18,10.57a3.65,3.65,0,1,1,3.64-3.65A3.65,3.65,0,0,1,18,10.57Zm0-5.7a2.06,2.06,0,1,0,2.05,2.05A2.05,2.05,0,0,0,18,4.87Z"/><path class="cls-2" d="M6.93,10.57a3.65,3.65,0,1,1,3.64-3.65A3.66,3.66,0,0,1,6.93,10.57Zm0-5.7A2.06,2.06,0,1,0,9,6.92,2.05,2.05,0,0,0,6.93,4.87Z"/><path class="cls-2" d="M40.28,10.57h-.53a3.64,3.64,0,1,1,4-3.62,3.11,3.11,0,0,1-.07.69H38.24l.11.27a2,2,0,0,0,1.42,1,2.41,2.41,0,0,0,.54.05h.09a2.17,2.17,0,0,0,1.38-.5l0,0,1.48.79-.07.08a3.67,3.67,0,0,1-2.83,1.26Zm-.12-5.69a2,2,0,0,0-1.9,1.27v0h3.81v0A2,2,0,0,0,40.16,4.88Z"/><path class="cls-2" d="M25.65,10.38V6.73a3.64,3.64,0,0,1,6.9-1.43l-1.41.75a2,2,0,0,0-3.9.88v3.45Z"/></g></g></svg>